<?xml version="1.0" encoding="UTF-8"?>
<svg xmlns="http://www.w3.org/2000/svg" version="1.1" viewBox="0 0 333.3 279.1">
  <defs>
    <style>
      .cls-1 {
        fill: #3693d0;
        fill-rule: evenodd;
        stroke: #3693d0;
        stroke-miterlimit: 3.2;
        stroke-width: .8px;
      }
    </style>
  </defs>
  <!-- Generator: Adobe Illustrator 28.7.3, SVG Export Plug-In . SVG Version: 1.2.0 Build 164)  -->
  <g>
    <g id="Layer_1">
      <path class="cls-1" d="M90.4,111.8s1.3-.9,2-1.4c.6-.4,1.2-.9,1.8-1.2.8-.4,1.8-.4,2.6-.6.8-.2,1.6-.7,2.5-.8.6,0,1.2.1,1.8.3.7.2,1.4.5,2,.9.6.4,1,1,1.5,1.5.4.4,1.2,1.1,1.2,1.1l2,1.4,2.6,1.7,2.9,2.6,1.7,1.2,2.5,1.5,3.7,1.8,5.8.6,3.1,1.2,2.9.3,5.1.5,5.5-.5,4.5-.5,5.4-.3,3.7.2,4.2.5,2.6-.5,4-1.8,2.5-1.4,2.6-2.3,1.4-2.3.5-3.7-.3-3.8-1.1-3.5-1.1-2.3-.6-1.8-.2-2.2,1.1,2.3,1.7,2.8,2,3.4,1.2,2.6v-1.1l.5,2.5-.2.9.5-1.7v1.5l-.8,1.2-.6.5,1.5-.3-.8,2-.3.5,1.1-.8-1.1,4.2-1.5,2.6-2.3,1.8-1.7,1.2-1.1.3-1.4.6-.6,2.5,1.2,1.2,1.5,2.5,1.5,2.5.3,2.2v4l-.5,5.8v4.3l1.2,4.3,1.1,3.1,1.7,2.8,1.7,2.8.6,1.2.8,1.7-.2,6.3.9,3.8-.5,2.5-2,1.7-2.6-.3-.5-1.8-.2-1.4,1.1-.9.5-1.1-.9-5.8-2-3.7-4.5-4.8-3.4-4.2-2-2.8v4.2l-.5,2.5s2.3,3.2,2.3,5.1c0,.7-.9,2-.9,2l-2.5,6.3-1.2,3.5h-1.4l-1.4,1.2-1.1-.5h-2.2l-.5-.8-.2-1.4,1.1-1.4.9-.6,1.7.6,2.3-4.8-.6-3.4-1.4-4.2-2.2-6.2-1.2-2.9-.9-6.3v-.8l-3.1-.5-.5-1.4-1.7-.2-3.1.5-3.2,2.3-3.5,1.5-6,2.9-3.8.9-2.9.3-2.6-.5-.9,4.9v9.7l.3,4.3v.9s-2.2-1.5-1.5,2.2c.6,3.7.6,5.4.6,5.4v1.2l-3.1.3-2.6-.5-1.2-1.1.2-2,.6-.9h-1.8l-.8-.9-.2-1.2.8-1.1h1.5l.8-1.7-1.8-13.4-1.8-6.5.3-1.4-2.2-4.9-1.7-3.8-1.4-5.7-1.7-2.5s-2.5-4.4-4.2-6.3c-.8-1-1.6-2.1-2.8-2.6-.8-.4-1.9-.3-2.8-.2-.8.1-1.5.8-2.3.9-.6.1-1.1,0-1.7,0-1.5,0-3.1.4-4.6.2-1-.2-3.5-.9-2.9-1.1.6-.2-.4-1.8-.9-2.6-.4-.6-1.5-1.5-1.5-1.5l-.2-1.4.6-1.2,2.3-.6,2.8-1.2,2-1.7.3-2.2Z"/>
    </g>
  </g>
</svg>